Coordinates
version=1
nRows=26
nColumns=24
inDegrees=yes

Units are S.I. units (second, meters, Newtons, ...)
Angles are in degrees.

endheader
time	pelvis_tilt	pelvis_list	pelvis_rotation	pelvis_tx	pelvis_ty	pelvis_tz	hip_flexion_r	hip_adduction_r	hip_rotation_r	knee_angle_r	ankle_angle_r	subtalar_angle_r	mtp_angle_r	hip_flexion_l	hip_adduction_l	hip_rotation_l	knee_angle_l	ankle_angle_l	subtalar_angle_l	mtp_angle_l	lumbar_extension	lumbar_bending	lumbar_rotation
      5.45000000	      9.93330959	      0.79580968	     -7.51169568	     -0.98809410	      0.82730730	      0.17580234	    -17.32720812	      1.67655950	      8.09863540	     -8.55964819	     19.15591910	      1.30596333	      0.00000000	     12.18778623	      1.29427668	     -4.51197201	    -33.50642991	     10.07026007	    -21.29519555	      0.00000000	    -24.64663967	     -6.04584374	      4.64207708
      5.46000000	      9.77730896	      0.78723628	     -8.13591260	     -0.97543799	      0.82636899	      0.17637129	    -18.62869791	      1.26490690	      8.02065048	     -7.47552698	     19.13135476	      2.01163077	      0.00000000	     12.37174960	      1.14551629	     -3.93086424	    -28.85164961	      9.12628620	    -22.17022745	      0.00000000	    -24.72216895	     -6.41302402	      5.99692804
      5.47000000	     10.01612892	      0.62925902	     -8.73388624	     -0.96268056	      0.82536431	      0.17690950	    -20.31524085	      0.94518209	      7.66033282	     -6.52039864	     19.17601579	      2.90886811	      0.00000000	     11.96762132	      0.87872656	     -3.25575221	    -24.12546555	      8.25959138	    -22.65877838	      0.00000000	    -25.29904922	     -6.67414307	      7.32547403
      5.48000000	     10.02488828	      0.26272059	     -9.42749942	     -0.94979149	      0.82366323	      0.17745741	    -21.68635216	      0.80804267	      7.65225392	     -5.79380727	     19.30870745	      3.81151304	      0.00000000	     11.76286636	      0.30920979	     -2.59096637	    -19.66826541	      7.75942151	    -22.34609477	      0.00000000	    -25.59073254	     -6.65057350	      8.79577340
      5.49000000	     10.04824838	     -0.21111645	    -10.19342404	     -0.93665257	      0.82158729	      0.17797267	    -23.00947137	      0.71315038	      7.78857069	     -5.27103900	     19.52252028	      4.73479945	      0.00000000	     11.49550790	     -0.38273091	     -1.80612664	    -15.52580773	      7.46388001	    -21.50007369	      0.00000000	    -25.87372793	     -6.50532512	     10.31128637
      5.50000000	     10.04179640	     -0.79610713	    -11.04400999	     -0.92328283	      0.81918507	      0.17845170	    -24.22447110	      0.66033851	      8.11356855	     -4.97487431	     19.77782283	      5.63113173	      0.00000000	     11.23310855	     -1.20873015	     -0.83227257	    -11.82348404	      7.32549576	    -20.34100249	      0.00000000	    -26.10023960	     -6.22251319	     11.88496833
      5.51000000	      9.91752393	     -1.50667213	    -11.85720856	     -0.90979399	      0.81646413	      0.17882362	    -25.23580995	      0.74277089	      8.54237948	     -4.91638244	     19.99059303	      6.39239919	      0.00000000	     11.12298171	     -2.19437357	      0.53484983	     -8.70891472	      7.27844316	    -19.10144610	      0.00000000	    -26.23525331	     -5.74380284	     13.38557883
      5.52000000	     10.00548115	     -2.09324226	    -12.97378599	     -0.89582398	      0.81393192	      0.17935685	    -26.38303250	      0.46224572	      9.20524339	     -5.03369282	     20.28836889	      7.32088073	      0.00000000	     10.68392315	     -3.04819201	      1.60388716	     -6.00722875	      7.16370222	    -18.11570620	      0.00000000	    -26.47558525	     -5.50150871	     15.04289042
      5.53000000	      9.97525834	     -2.75320693	    -13.89102350	     -0.88178761	      0.81130035	      0.17961114	    -27.32366329	      0.34238867	      9.74901949	     -5.36965493	     20.40085537	      8.08007720	      0.00000000	     10.47265995	     -3.96103358	      2.91121930	     -4.04734775	      7.14314768	    -17.28930935	      0.00000000	    -26.66977650	     -5.06000840	     16.41776657
      5.54000000	     10.10820624	     -3.20372793	    -15.00359447	     -0.86730255	      0.80897795	      0.17997033	    -28.35090199	     -0.17050137	     10.44113386	     -5.80509291	     20.52403276	      8.94851025	      0.00000000	     10.03186488	     -4.59223928	      3.85723846	     -2.58949575	      6.83850661	    -17.12378687	      0.00000000	    -26.89956397	     -4.94067772	     17.77792802
      5.55000000	     10.27887020	     -3.55582144	    -15.93866317	     -0.85255862	      0.80685870	      0.18000983	    -29.32144965	     -0.73844699	     10.89048399	     -6.40067167	     20.46410913	      9.77394785	      0.00000000	      9.64065042	     -4.99733478	      4.70539816	     -1.81196891	      6.48163686	    -17.31268996	      0.00000000	    -27.15971003	     -4.83575196	     18.79961223
      5.56000000	     10.52822884	     -3.70560332	    -16.74525151	     -0.83744504	      0.80502403	      0.17977335	    -30.26470470	     -1.49072928	     11.10247264	     -7.12400751	     20.22633440	     10.62030870	      0.00000000	      9.26645116	     -5.03694575	      5.34563017	     -1.68829186	      5.96504011	    -17.91230634	      0.00000000	    -27.42676991	     -4.89975990	     19.48013680
      5.57000000	     10.74068148	     -3.71346362	    -17.44500997	     -0.82204154	      0.80345212	      0.17925759	    -31.03011981	     -2.32772680	     11.13738523	     -8.03328146	     19.75636328	     11.48208597	      0.00000000	      9.06104850	     -4.79978457	      5.60332576	     -2.24529862	      5.40595763	    -18.57274896	      0.00000000	    -27.58224225	     -5.00764208	     19.87900964
      5.58000000	     11.17147694	     -3.40505244	    -17.86271002	     -0.80612904	      0.80221334	      0.17835227	    -31.92307207	     -3.38817174	     10.78921973	     -9.03310046	     19.08975379	     12.29991086	      0.00000000	      8.79721299	     -4.00972861	      5.99167821	     -3.37110011	      4.52459214	    -19.69253449	      0.00000000	    -27.83119423	     -5.41084576	     19.76709037
      5.59000000	     11.35223361	     -2.92035678	    -18.16138580	     -0.78985969	      0.80104785	      0.17727915	    -32.43015897	     -4.43395341	     10.60040825	    -10.19307275	     18.00146115	     12.72060988	      0.00000000	      9.01878518	     -3.00294660	      5.89883455	     -5.19002824	      3.86071166	    -20.30307299	      0.00000000	    -27.66614236	     -5.83383757	     19.41158573
      5.60000000	     11.77474966	     -2.32803552	    -18.23487604	     -0.77344855	      0.80035231	      0.17581891	    -32.97702991	     -5.50917402	      9.73608756	    -11.70529366	     16.74326687	     13.45808525	      0.00000000	      9.10516742	     -1.69713771	      6.00579379	     -7.40652907	      2.86959170	    -21.18455571	      0.00000000	    -27.78131826	     -6.36088008	     18.78058994
      5.61000000	     12.03825008	     -1.68372834	    -18.21703974	     -0.75680570	      0.79979521	      0.17431662	    -33.21862675	     -6.46944854	      9.14548199	    -13.45044644	     15.03115342	     13.76014828	      0.00000000	      9.47209167	     -0.34449199	      5.84718139	    -10.03555037	      2.19353723	    -21.54673315	      0.00000000	    -27.64133232	     -6.85107804	     18.03870211
      5.62000000	     12.26345375	     -1.04669325	    -18.14693384	     -0.74004519	      0.79949690	      0.17287162	    -33.22299061	     -7.31339894	      8.65599928	    -15.52239909	     12.93860126	     13.82975372	      0.00000000	      9.88124579	      0.98912892	      5.50916050	    -12.83127479	      1.79667997	    -21.49442064	      0.00000000	    -27.42722760	     -7.33097884	     17.29438781
      5.63000000	     12.45673617	     -0.47877560	    -17.95610692	     -0.72328322	      0.79942547	      0.17141461	    -32.95661386	     -7.96477655	      7.95068164	    -17.99130868	     10.55547675	     13.84074779	      0.00000000	     10.26428667	      2.22551819	      5.14179186	    -15.64380547	      1.81784200	    -20.97465949	      0.00000000	    -27.20875171	     -7.71992278	     16.52003953
      5.64000000	     12.42730335	     -0.21214321	    -17.75748592	     -0.70688114	      0.79949666	      0.17013859	    -32.16145726	     -8.20081098	      7.40249578	    -20.93705206	      7.84797118	     13.54039925	      0.00000000	     10.73807751	      2.99333928	      4.53214465	    -18.41777435	      2.68334818	    -19.66777645	      0.00000000	    -26.90007988	     -7.76954922	     16.02960554
      5.65000000	     12.48527136	      0.00423505	    -17.73584067	     -0.69063980	      0.79995609	      0.16931330	    -31.15668349	     -8.42706228	      7.12678638	    -24.21000056	      4.90623998	     12.75198025	      0.00000000	     10.82591527	      3.63151076	      3.75425303	    -20.71095875	      3.76446892	    -18.37310677	      0.00000000	    -26.67680037	     -7.92755063	     15.72757930
      5.66000000	     12.53783138	      0.10371598	    -17.85746011	     -0.67477556	      0.80071675	      0.16878181	    -29.81598672	     -8.55346510	      6.99092250	    -27.83194634	      1.88100403	     11.56664686	      0.00000000	     10.62562222	      4.04717978	      2.79627689	    -22.52023070	      5.16667185	    -17.00824575	      0.00000000	    -26.52040391	     -8.04317683	     15.64734361
      5.67000000	     12.60251592	      0.17195928	    -18.11703450	     -0.65929316	      0.80172923	      0.16848774	    -28.17460521	     -8.66082457	      6.93186465	    -31.72251713	     -1.03964035	      9.91212896	      0.00000000	     10.11906355	      4.35615228	      1.71519341	    -23.78665408	      6.78051623	    -15.66593523	      0.00000000	    -26.42062082	     -8.19959519	     15.71165387
      5.68000000	     12.60524944	      0.28025674	    -18.49103573	     -0.64421382	      0.80288261	      0.16836731	    -26.17828592	     -8.77604367	      6.95290693	    -35.80944085	     -3.64041761	      7.82920086	      0.00000000	      9.43064886	      4.62843154	      0.50553975	    -24.53771817	      8.47559107	    -14.33267454	      0.00000000	    -26.27691864	     -8.42457668	     15.83010357
      5.69000000	     12.72509555	      0.39209275	    -18.95447809	     -0.62946197	      0.80431059	      0.16837926	    -24.13246774	     -8.88480910	      7.09710367	    -39.90587289	     -5.78942823	      5.22620240	      0.00000000	      8.32858776	      4.96325102	     -0.55452173	    -24.71689594	     10.11077254	    -13.32022832	      0.00000000	    -26.26771068	     -8.70951754	     15.97925615
      5.70000000	     12.76655233	      0.54488389	    -19.43877168	     -0.61511940	      0.80581617	      0.16840532	    -21.83613225	     -8.94150578	      7.30441996	    -44.00030261	     -7.23738975	      2.47262516	      0.00000000	      7.16573006	      5.31634103	     -1.67813972	    -24.54007188	     11.63117256	    -12.29076311	      0.00000000	    -26.20820586	     -8.99517169	     16.09139657
